<mxfile host="app.diagrams.net" modified="2024-01-12T18:52:17.691Z" agent="Mozilla/5.0 (Windows NT 10.0; Win64; x64) AppleWebKit/537.36 (KHTML, like Gecko) Chrome/120.0.0.0 Safari/537.36" etag="w9iUk5xPgUIDE2P_z4CE" version="22.1.18" type="github">
  <diagram id="C5RBs43oDa-KdzZeNtuy" name="Page-1">
    <mxGraphModel dx="1281" dy="840" grid="1" gridSize="10" guides="1" tooltips="1" connect="1" arrows="1" fold="1" page="1" pageScale="1" pageWidth="827" pageHeight="1169" math="0" shadow="0">
      <root>
        <mxCell id="WIyWlLk6GJQsqaUBKTNV-0" />
        <mxCell id="WIyWlLk6GJQsqaUBKTNV-1" parent="WIyWlLk6GJQsqaUBKTNV-0" />
        <mxCell id="kqULHKZbFveMrg09GAzt-2" style="edgeStyle=orthogonalEdgeStyle;rounded=0;orthogonalLoop=1;jettySize=auto;html=1;exitX=0.5;exitY=1;exitDx=0;exitDy=0;entryX=0.5;entryY=0;entryDx=0;entryDy=0;" edge="1" parent="WIyWlLk6GJQsqaUBKTNV-1" source="WIyWlLk6GJQsqaUBKTNV-3" target="kqULHKZbFveMrg09GAzt-0">
          <mxGeometry relative="1" as="geometry" />
        </mxCell>
        <mxCell id="WIyWlLk6GJQsqaUBKTNV-3" value="CREAR CLASS editarOficinas" style="rounded=1;whiteSpace=wrap;html=1;fontSize=12;glass=0;strokeWidth=1;shadow=0;" parent="WIyWlLk6GJQsqaUBKTNV-1" vertex="1">
          <mxGeometry x="67.5" width="120" height="40" as="geometry" />
        </mxCell>
        <mxCell id="kqULHKZbFveMrg09GAzt-3" style="edgeStyle=orthogonalEdgeStyle;rounded=0;orthogonalLoop=1;jettySize=auto;html=1;exitX=0.5;exitY=1;exitDx=0;exitDy=0;entryX=0.5;entryY=0;entryDx=0;entryDy=0;" edge="1" parent="WIyWlLk6GJQsqaUBKTNV-1" source="kqULHKZbFveMrg09GAzt-0" target="kqULHKZbFveMrg09GAzt-1">
          <mxGeometry relative="1" as="geometry" />
        </mxCell>
        <mxCell id="kqULHKZbFveMrg09GAzt-0" value="CREAR METODO POST Editar_Oficina" style="rounded=1;whiteSpace=wrap;html=1;" vertex="1" parent="WIyWlLk6GJQsqaUBKTNV-1">
          <mxGeometry x="62.5" y="70" width="130" height="50" as="geometry" />
        </mxCell>
        <mxCell id="kqULHKZbFveMrg09GAzt-9" value="" style="edgeStyle=orthogonalEdgeStyle;rounded=0;orthogonalLoop=1;jettySize=auto;html=1;" edge="1" parent="WIyWlLk6GJQsqaUBKTNV-1" source="kqULHKZbFveMrg09GAzt-1" target="kqULHKZbFveMrg09GAzt-6">
          <mxGeometry relative="1" as="geometry" />
        </mxCell>
        <mxCell id="kqULHKZbFveMrg09GAzt-1" value="CREAR METODO Editar_Oficinas EN Metodos.cs" style="rounded=1;whiteSpace=wrap;html=1;" vertex="1" parent="WIyWlLk6GJQsqaUBKTNV-1">
          <mxGeometry x="62.5" y="150" width="130" height="50" as="geometry" />
        </mxCell>
        <mxCell id="kqULHKZbFveMrg09GAzt-5" value="INICIO" style="strokeWidth=2;html=1;shape=mxgraph.flowchart.start_2;whiteSpace=wrap;" vertex="1" parent="WIyWlLk6GJQsqaUBKTNV-1">
          <mxGeometry x="102.5" y="230" width="50" height="50" as="geometry" />
        </mxCell>
        <mxCell id="kqULHKZbFveMrg09GAzt-10" value="" style="edgeStyle=orthogonalEdgeStyle;rounded=0;orthogonalLoop=1;jettySize=auto;html=1;" edge="1" parent="WIyWlLk6GJQsqaUBKTNV-1" source="kqULHKZbFveMrg09GAzt-6" target="kqULHKZbFveMrg09GAzt-7">
          <mxGeometry relative="1" as="geometry" />
        </mxCell>
        <mxCell id="kqULHKZbFveMrg09GAzt-6" value="res = &quot;&quot;,&lt;br&gt;lastUpdate = DateTime.Now" style="rounded=0;whiteSpace=wrap;html=1;" vertex="1" parent="WIyWlLk6GJQsqaUBKTNV-1">
          <mxGeometry x="40" y="300" width="175" height="40" as="geometry" />
        </mxCell>
        <mxCell id="kqULHKZbFveMrg09GAzt-19" style="edgeStyle=orthogonalEdgeStyle;rounded=0;orthogonalLoop=1;jettySize=auto;html=1;exitX=0.5;exitY=1;exitDx=0;exitDy=0;exitPerimeter=0;entryX=0.5;entryY=0;entryDx=0;entryDy=0;" edge="1" parent="WIyWlLk6GJQsqaUBKTNV-1" source="kqULHKZbFveMrg09GAzt-7" target="kqULHKZbFveMrg09GAzt-13">
          <mxGeometry relative="1" as="geometry" />
        </mxCell>
        <mxCell id="kqULHKZbFveMrg09GAzt-7" value="try catch" style="strokeWidth=2;html=1;shape=mxgraph.flowchart.decision;whiteSpace=wrap;" vertex="1" parent="WIyWlLk6GJQsqaUBKTNV-1">
          <mxGeometry x="77.5" y="370" width="100" height="100" as="geometry" />
        </mxCell>
        <mxCell id="kqULHKZbFveMrg09GAzt-11" value="return res = ex.Message" style="strokeWidth=2;html=1;shape=mxgraph.flowchart.start_1;whiteSpace=wrap;" vertex="1" parent="WIyWlLk6GJQsqaUBKTNV-1">
          <mxGeometry x="257.5" y="390" width="90" height="60" as="geometry" />
        </mxCell>
        <mxCell id="kqULHKZbFveMrg09GAzt-12" style="edgeStyle=orthogonalEdgeStyle;rounded=0;orthogonalLoop=1;jettySize=auto;html=1;exitX=1;exitY=0.5;exitDx=0;exitDy=0;exitPerimeter=0;entryX=0;entryY=0.5;entryDx=0;entryDy=0;entryPerimeter=0;" edge="1" parent="WIyWlLk6GJQsqaUBKTNV-1" source="kqULHKZbFveMrg09GAzt-7" target="kqULHKZbFveMrg09GAzt-11">
          <mxGeometry relative="1" as="geometry" />
        </mxCell>
        <mxCell id="kqULHKZbFveMrg09GAzt-20" style="edgeStyle=orthogonalEdgeStyle;rounded=0;orthogonalLoop=1;jettySize=auto;html=1;exitX=0.5;exitY=1;exitDx=0;exitDy=0;entryX=0.5;entryY=0;entryDx=0;entryDy=0;" edge="1" parent="WIyWlLk6GJQsqaUBKTNV-1" source="kqULHKZbFveMrg09GAzt-13" target="kqULHKZbFveMrg09GAzt-14">
          <mxGeometry relative="1" as="geometry" />
        </mxCell>
        <mxCell id="kqULHKZbFveMrg09GAzt-13" value="CREAR LISTAS &#39;queryList&#39; Y &#39;listParemeter&#39;" style="shape=parallelogram;html=1;strokeWidth=2;perimeter=parallelogramPerimeter;whiteSpace=wrap;rounded=1;arcSize=12;size=0.23;" vertex="1" parent="WIyWlLk6GJQsqaUBKTNV-1">
          <mxGeometry x="55" y="490" width="140" height="60" as="geometry" />
        </mxCell>
        <mxCell id="kqULHKZbFveMrg09GAzt-21" style="edgeStyle=orthogonalEdgeStyle;rounded=0;orthogonalLoop=1;jettySize=auto;html=1;exitX=0.5;exitY=1;exitDx=0;exitDy=0;entryX=0.5;entryY=0;entryDx=0;entryDy=0;" edge="1" parent="WIyWlLk6GJQsqaUBKTNV-1" source="kqULHKZbFveMrg09GAzt-14" target="kqULHKZbFveMrg09GAzt-15">
          <mxGeometry relative="1" as="geometry" />
        </mxCell>
        <mxCell id="kqULHKZbFveMrg09GAzt-14" value="SELECT office_location" style="shape=internalStorage;whiteSpace=wrap;html=1;dx=15;dy=15;rounded=1;arcSize=8;strokeWidth=2;" vertex="1" parent="WIyWlLk6GJQsqaUBKTNV-1">
          <mxGeometry x="67.5" y="580" width="115" height="70" as="geometry" />
        </mxCell>
        <mxCell id="kqULHKZbFveMrg09GAzt-22" value="" style="edgeStyle=orthogonalEdgeStyle;rounded=0;orthogonalLoop=1;jettySize=auto;html=1;" edge="1" parent="WIyWlLk6GJQsqaUBKTNV-1" source="kqULHKZbFveMrg09GAzt-15" target="kqULHKZbFveMrg09GAzt-16">
          <mxGeometry relative="1" as="geometry" />
        </mxCell>
        <mxCell id="kqULHKZbFveMrg09GAzt-15" value="CREAR ARRAY DE PARAMETROS &#39;Npgsql&#39;" style="shape=parallelogram;html=1;strokeWidth=2;perimeter=parallelogramPerimeter;whiteSpace=wrap;rounded=1;arcSize=12;size=0.23;" vertex="1" parent="WIyWlLk6GJQsqaUBKTNV-1">
          <mxGeometry x="55" y="680" width="140" height="60" as="geometry" />
        </mxCell>
        <mxCell id="kqULHKZbFveMrg09GAzt-23" value="" style="edgeStyle=orthogonalEdgeStyle;rounded=0;orthogonalLoop=1;jettySize=auto;html=1;" edge="1" parent="WIyWlLk6GJQsqaUBKTNV-1" source="kqULHKZbFveMrg09GAzt-16" target="kqULHKZbFveMrg09GAzt-17">
          <mxGeometry relative="1" as="geometry" />
        </mxCell>
        <mxCell id="kqULHKZbFveMrg09GAzt-16" value="AÃ‘ADE LA CONSULTA SQL Y LOS PARAMETROS A LAS LISTAS &#39;queryList&#39; Y &#39;listParemeter&#39;" style="rounded=1;whiteSpace=wrap;html=1;absoluteArcSize=1;arcSize=14;strokeWidth=2;" vertex="1" parent="WIyWlLk6GJQsqaUBKTNV-1">
          <mxGeometry x="50" y="770" width="150" height="100" as="geometry" />
        </mxCell>
        <mxCell id="kqULHKZbFveMrg09GAzt-17" value="LLAMA A LA FUNCION &#39;mandaQryUpdate&#39; CON LA CONSULTA Y PARAMETROS" style="rounded=1;whiteSpace=wrap;html=1;absoluteArcSize=1;arcSize=14;strokeWidth=2;" vertex="1" parent="WIyWlLk6GJQsqaUBKTNV-1">
          <mxGeometry x="40" y="900" width="170" height="100" as="geometry" />
        </mxCell>
        <mxCell id="kqULHKZbFveMrg09GAzt-18" value="mandaQryUpdate" style="strokeWidth=2;html=1;shape=mxgraph.flowchart.decision;whiteSpace=wrap;" vertex="1" parent="WIyWlLk6GJQsqaUBKTNV-1">
          <mxGeometry x="65" y="1020" width="125" height="100" as="geometry" />
        </mxCell>
        <mxCell id="kqULHKZbFveMrg09GAzt-25" value="TRUE" style="strokeWidth=2;html=1;shape=mxgraph.flowchart.display;whiteSpace=wrap;" vertex="1" parent="WIyWlLk6GJQsqaUBKTNV-1">
          <mxGeometry x="220" y="1090" width="100" height="60" as="geometry" />
        </mxCell>
        <mxCell id="kqULHKZbFveMrg09GAzt-26" style="edgeStyle=orthogonalEdgeStyle;rounded=0;orthogonalLoop=1;jettySize=auto;html=1;exitX=1;exitY=0.5;exitDx=0;exitDy=0;exitPerimeter=0;entryX=0.5;entryY=1;entryDx=0;entryDy=0;entryPerimeter=0;" edge="1" parent="WIyWlLk6GJQsqaUBKTNV-1" source="kqULHKZbFveMrg09GAzt-18" target="kqULHKZbFveMrg09GAzt-11">
          <mxGeometry relative="1" as="geometry" />
        </mxCell>
        <mxCell id="kqULHKZbFveMrg09GAzt-27" style="edgeStyle=orthogonalEdgeStyle;rounded=0;orthogonalLoop=1;jettySize=auto;html=1;exitX=0.5;exitY=1;exitDx=0;exitDy=0;exitPerimeter=0;entryX=0;entryY=0.5;entryDx=0;entryDy=0;entryPerimeter=0;" edge="1" parent="WIyWlLk6GJQsqaUBKTNV-1" source="kqULHKZbFveMrg09GAzt-18" target="kqULHKZbFveMrg09GAzt-25">
          <mxGeometry relative="1" as="geometry" />
        </mxCell>
        <mxCell id="kqULHKZbFveMrg09GAzt-28" style="edgeStyle=orthogonalEdgeStyle;rounded=0;orthogonalLoop=1;jettySize=auto;html=1;exitX=0.5;exitY=1;exitDx=0;exitDy=0;entryX=0.5;entryY=0;entryDx=0;entryDy=0;entryPerimeter=0;" edge="1" parent="WIyWlLk6GJQsqaUBKTNV-1" source="kqULHKZbFveMrg09GAzt-17" target="kqULHKZbFveMrg09GAzt-18">
          <mxGeometry relative="1" as="geometry" />
        </mxCell>
      </root>
    </mxGraphModel>
  </diagram>
</mxfile>
